<svg width="46" height="46" viewBox="0 0 46 46" fill="none" xmlns="http://www.w3.org/2000/svg">
<path fill-rule="evenodd" clip-rule="evenodd" d="M22.9997 0.0834961C10.3434 0.0834961 0.0830078 10.3439 0.0830078 23.0002C0.0830078 35.6564 10.3434 45.9168 22.9997 45.9168C35.6559 45.9168 45.9163 35.6564 45.9163 23.0002C45.9163 10.3439 35.6559 0.0834961 22.9997 0.0834961ZM30.7226 18.2231C31.1021 17.8302 31.3121 17.3039 31.3073 16.7577C31.3026 16.2114 31.0835 15.6889 30.6972 15.3026C30.3109 14.9164 29.7884 14.6973 29.2422 14.6925C28.6959 14.6878 28.1697 14.8977 27.7768 15.2772L22.9997 20.0543L18.2226 15.2772C18.0304 15.0783 17.8005 14.9196 17.5463 14.8104C17.2922 14.7012 17.0188 14.6437 16.7422 14.6413C16.4656 14.6389 16.1912 14.6916 15.9352 14.7964C15.6792 14.9011 15.4465 15.0558 15.2509 15.2514C15.0553 15.447 14.9006 15.6796 14.7959 15.9357C14.6911 16.1917 14.6384 16.466 14.6408 16.7427C14.6432 17.0193 14.7007 17.2927 14.8099 17.5468C14.9191 17.801 15.0778 18.0309 15.2768 18.2231L20.0538 23.0002L15.2768 27.7772C15.0778 27.9694 14.9191 28.1993 14.8099 28.4535C14.7007 28.7077 14.6432 28.981 14.6408 29.2577C14.6384 29.5343 14.6911 29.8086 14.7959 30.0646C14.9006 30.3207 15.0553 30.5533 15.2509 30.7489C15.4465 30.9445 15.6792 31.0992 15.9352 31.204C16.1912 31.3087 16.4656 31.3614 16.7422 31.359C17.0188 31.3566 17.2922 31.2991 17.5463 31.19C17.8005 31.0808 18.0304 30.9221 18.2226 30.7231L22.9997 25.946L27.7768 30.7231C28.1697 31.1026 28.6959 31.3126 29.2422 31.3078C29.7884 31.3031 30.3109 31.084 30.6972 30.6977C31.0835 30.3114 31.3026 29.7889 31.3073 29.2427C31.3121 28.6964 31.1021 28.1702 30.7226 27.7772L25.9455 23.0002L30.7226 18.2231Z" fill="white"/>
</svg>
