<svg width="45" height="45" viewBox="0 0 45 45" fill="none" xmlns="http://www.w3.org/2000/svg">
<path d="M44.6455 40.2L25.465 1.8C24.2663 -0.6 20.9696 -0.6 19.7709 1.8L0.29075 40.2C-0.908026 42.3 0.890137 45 3.28769 45H41.6485C44.0461 45 45.5445 42.3 44.6455 40.2ZM22.4681 39C20.0705 39 17.9727 36.9 17.9727 34.5C17.9727 32.1 19.7709 30 22.4681 30C25.1653 30 26.9635 32.1 26.9635 34.5C26.9635 37.2 24.8657 39 22.4681 39ZM25.465 27H19.4712L17.9727 16.5C17.9727 15.6 18.5721 15 19.4712 15H25.465C26.3641 15 26.9635 15.6 26.9635 16.5L25.465 27Z" fill="white"/>
</svg>
